<!-- Need Provider Project Update v2.1 -->
<svg xmlns="http://www.w3.org/2000/svg" viewBox="0 0 64 64" fill="none">
  <rect width="64" height="64" rx="12" fill="#ADFF2F"/>
  <rect x="1" y="1" width="62" height="62" rx="11" stroke="#000" stroke-width="3" fill="none"/>
  <path d="M32 12C22 18 16 28 16 40c0 2 .5 4 1.5 5.5C20 42 24 36 32 32c8 4 12 10 14.5 13.5C47.5 44 48 42 48 40c0-12-6-22-16-28z" fill="#000"/>
  <path d="M32 32v18" stroke="#ADFF2F" stroke-width="3" stroke-linecap="round"/>
  <path d="M32 38c-4-2-7-5-9-8" stroke="#ADFF2F" stroke-width="2" stroke-linecap="round"/>
  <path d="M32 42c4-2 6-5 8-8" stroke="#ADFF2F" stroke-width="2" stroke-linecap="round"/>
</svg>
